<?xml version="1.0" encoding="UTF-8" standalone="no"?>
<svg
   xmlns:dc="http://purl.org/dc/elements/1.1/"
   xmlns:cc="http://creativecommons.org/ns#"
   xmlns:rdf="http://www.w3.org/1999/02/22-rdf-syntax-ns#"
   xmlns:svg="http://www.w3.org/2000/svg"
   xmlns="http://www.w3.org/2000/svg"
   xmlns:sodipodi="http://sodipodi.sourceforge.net/DTD/sodipodi-0.dtd"
   xmlns:inkscape="http://www.inkscape.org/namespaces/inkscape"
   viewBox="0 0 699.99997 699.99998"
   version="1.1"
   id="svg32"
   sodipodi:docname="big-bom-preco-logo.svg"
   width="700"
   height="700"
   inkscape:version="0.92.4 (5da689c313, 2019-01-14)"
   inkscape:export-filename="C:\Users\suitedoalex\sites\big-bom-preco-logo-0.png"
   inkscape:export-xdpi="561.73712"
   inkscape:export-ydpi="561.73712">
  <metadata
     id="metadata36">
    <rdf:RDF>
      <cc:Work
         rdf:about="">
        <dc:format>image/svg+xml</dc:format>
        <dc:type
           rdf:resource="http://purl.org/dc/dcmitype/StillImage" />
        <dc:title>WALM-0002-0001 AF LOGO BIG bompreco CC</dc:title>
      </cc:Work>
    </rdf:RDF>
  </metadata>
  <sodipodi:namedview
     pagecolor="#ffffff"
     bordercolor="#666666"
     borderopacity="1"
     objecttolerance="10"
     gridtolerance="10"
     guidetolerance="10"
     inkscape:pageopacity="0"
     inkscape:pageshadow="2"
     inkscape:window-width="1600"
     inkscape:window-height="837"
     id="namedview34"
     showgrid="false"
     inkscape:zoom="0.4715649"
     inkscape:cx="-99.102912"
     inkscape:cy="525.79911"
     inkscape:window-x="-8"
     inkscape:window-y="-8"
     inkscape:window-maximized="1"
     inkscape:current-layer="svg32" />
  <defs
     id="defs4">
    <style
       id="style2">.a{fill:#ffffff;}.b,.c{fill:#df231d;}.c{fill-rule:evenodd;}</style>
  </defs>
  <title
     id="title6">WALM-0002-0001 AF LOGO BIG bompreco CC</title>
  <path
     class="a"
     d="M 89.583485,406.87477 H 106.8713 v 23.84703 c 6.14007,-6.55922 14.36851,-6.55922 16.75837,-6.55922 12.08161,0 28.42819,8.64023 28.42819,30.50185 0,20.82479 -14.47147,31.23719 -29.15618,31.23719 -8.08873,0 -14.36852,-3.95612 -16.55247,-8.08873 h -0.2059 v 6.14008 H 89.583485 Z m 30.715095,62.88616 c 8.82406,0 14.47882,-7.18425 14.47882,-14.7803 0,-7.59605 -5.62534,-14.70678 -14.16262,-14.70678 -9.16232,0 -14.36852,7.39751 -14.36852,14.58177 0,8.03725 5.41209,14.90531 14.05232,14.90531 z"
     id="path8"
     style="fill:#0069cc;fill-opacity:1;stroke-width:0.73533869"
     inkscape:connector-curvature="0"
     inkscape:export-filename="C:\Users\suitedoalex\sites\big-bom-preco-logo-4.png"
     inkscape:export-xdpi="73.634529"
     inkscape:export-ydpi="73.634529" />
  <path
     class="a"
     d="m 186.42023,424.26553 c 21.03069,0 31.13424,16.55247 31.13424,30.7151 0,14.16262 -10.10355,30.71509 -31.13424,30.71509 -21.03068,0 -31.13424,-16.55982 -31.13424,-30.71509 0,-14.15527 10.10356,-30.7151 31.13424,-30.7151 z m 0,45.28951 c 7.4931,0 13.84643,-6.14008 13.84643,-14.57441 0,-8.43434 -6.35333,-14.58177 -13.84643,-14.58177 -7.4931,0 -13.83907,6.14743 -13.83907,14.58177 0,8.43433 6.33862,14.57441 13.83907,14.57441 z"
     id="path10"
     style="fill:#0069cc;fill-opacity:1;stroke-width:0.73533869"
     inkscape:connector-curvature="0"
     inkscape:export-filename="C:\Users\suitedoalex\sites\big-bom-preco-logo-4.png"
     inkscape:export-xdpi="73.634529"
     inkscape:export-ydpi="73.634529" />
  <path
     class="a"
     d="m 223.5916,426.14064 h 16.14068 v 6.14008 h 0.2059 c 1.35302,-2.3972 5.10325,-8.08872 15.92743,-8.08872 5.10325,0 12.08162,1.76481 16.66278,10.29474 3.53699,-5.61799 9.47116,-10.29474 18.32464,-10.29474 4.05907,0 10.51535,0.93388 15.19945,5.83123 5.41944,5.72094 6.25038,9.5594 6.25038,22.38371 v 31.54603 h -17.28782 v -30.74451 c 0,-4.68411 0,-12.8096 -8.82406,-12.8096 -9.5594,0 -9.5594,8.75053 -9.5594,11.97867 v 31.54603 h -17.28046 v -31.44308 c 0,-3.12519 0,-12.08162 -8.64758,-12.08162 -9.78736,0 -9.78736,9.37557 -9.78736,12.8096 v 30.7151 h -17.28046 z"
     id="path12"
     style="fill:#0069cc;fill-opacity:1;stroke-width:0.73533869"
     inkscape:connector-curvature="0"
     inkscape:export-filename="C:\Users\suitedoalex\sites\big-bom-preco-logo-4.png"
     inkscape:export-xdpi="73.634529"
     inkscape:export-ydpi="73.634529" />
  <path
     class="a"
     d="m 320.73719,426.14064 h 16.24363 v 6.34598 h 0.3162 c 3.44138,-4.36792 9.16968,-8.32404 18.0158,-8.32404 20.51594,0 28.21494,18.00845 28.21494,31.44308 0,16.65543 -11.66247,30.29596 -28.112,30.29596 -10.41239,0 -15.30239,-4.99295 -17.3834,-7.18426 v 24.47207 h -17.29517 z m 45.50276,28.94293 c 0,-6.87541 -5.00029,-14.78766 -14.47147,-14.78766 -9.47116,0 -14.47146,7.91225 -14.47146,14.78766 0,7.28721 5.41944,14.70678 14.47882,14.70678 9.05937,0 14.46411,-7.41957 14.46411,-14.70678 z"
     id="path14"
     style="fill:#0069cc;fill-opacity:1;stroke-width:0.73533869"
     inkscape:connector-curvature="0"
     inkscape:export-filename="C:\Users\suitedoalex\sites\big-bom-preco-logo-4.png"
     inkscape:export-xdpi="73.634529"
     inkscape:export-ydpi="73.634529" />
  <path
     class="a"
     d="m 389.46195,426.14064 h 16.22158 v 6.14008 h 0.20589 c 1.47068,-2.80899 4.47821,-8.08872 14.47146,-8.08872 v 17.3834 c -8.0152,0.21325 -13.64054,1.87512 -13.64054,10.61829 v 31.75928 h -17.28046 z"
     id="path16"
     style="fill:#0069cc;fill-opacity:1;stroke-width:0.73533869"
     inkscape:connector-curvature="0"
     inkscape:export-filename="C:\Users\suitedoalex\sites\big-bom-preco-logo-4.png"
     inkscape:export-xdpi="73.634529"
     inkscape:export-ydpi="73.634529" />
  <path
     class="a"
     d="m 478.90854,465.80481 c -2.80899,6.45628 -6.87542,11.45658 -11.76542,14.78766 a 28.089937,28.089937 0 0 1 -16.44952,5.2062 30.656269,30.656269 0 0 1 -30.61215,-30.61215 c 0,-16.14068 12.6993,-31.02394 30.29595,-31.02394 17.59666,0 30.50921,13.97144 30.50921,31.54603 a 23.251409,23.251409 0 0 1 -0.41915,4.58116 h -43.31144 c 1.04417,6.87542 6.76512,10.93449 13.53759,10.93449 5.30914,0 8.08872,-2.39721 10.51534,-5.41945 z M 463.60615,448.6273 c -0.73534,-3.43403 -4.16938,-9.8903 -13.11845,-9.8903 -8.94907,0 -12.3978,6.45627 -13.12579,9.8903 z"
     id="path18"
     style="fill:#0069cc;fill-opacity:1;stroke-width:0.73533869"
     inkscape:connector-curvature="0"
     inkscape:export-filename="C:\Users\suitedoalex\sites\big-bom-preco-logo-4.png"
     inkscape:export-xdpi="73.634529"
     inkscape:export-ydpi="73.634529" />
  <path
     class="a"
     d="m 545.13315,461.95164 a 31.031292,31.031292 0 0 1 -61.2243,-7.03719 c 0,-16.97162 13.2361,-30.7151 30.5092,-30.7151 15.3024,0 27.69285,10.0962 30.6048,24.26618 H 527.5365 c -1.87512,-3.95613 -5.30915,-8.1255 -12.50076,-8.1255 -8.22844,-0.41179 -13.74348,6.35333 -13.74348,14.70678 0,8.35344 5.51504,14.70677 13.74348,14.70677 7.18426,0 10.61829,-4.16202 12.50076,-7.70635 z"
     id="path20"
     style="fill:#0069cc;fill-opacity:1;stroke-width:0.73533869"
     inkscape:connector-curvature="0"
     inkscape:export-filename="C:\Users\suitedoalex\sites\big-bom-preco-logo-4.png"
     inkscape:export-xdpi="73.634529"
     inkscape:export-ydpi="73.634529" />
  <rect
     class="a"
     x="494.61539"
     y="490.08569"
     width="38.965599"
     height="8.6696424"
     id="rect22"
     style="fill:#0069cc;fill-opacity:1;stroke-width:0.73533869"
     inkscape:export-filename="C:\Users\suitedoalex\sites\big-bom-preco-logo-4.png"
     inkscape:export-xdpi="73.634529"
     inkscape:export-ydpi="73.634529" />
  <path
     class="a"
     d="m 579.28228,424.26553 c 21.03067,0 31.13423,16.55247 31.13423,30.7151 0,14.16262 -10.10356,30.71509 -31.13423,30.71509 -21.0307,0 -31.13424,-16.55982 -31.13424,-30.71509 0,-14.15527 10.10354,-30.7151 31.13424,-30.7151 z m 0,45.28951 c 7.50045,0 13.84642,-6.14008 13.84642,-14.57441 0,-8.43434 -6.34597,-14.58177 -13.84642,-14.58177 -7.50046,0 -13.84644,6.14743 -13.84644,14.58177 0,8.43433 6.35333,14.57441 13.84644,14.57441 z"
     id="path24"
     style="fill:#0069cc;fill-opacity:1;stroke-width:0.73533869"
     inkscape:connector-curvature="0"
     inkscape:export-filename="C:\Users\suitedoalex\sites\big-bom-preco-logo-4.png"
     inkscape:export-xdpi="73.634529"
     inkscape:export-ydpi="73.634529" />
  <path
     class="b"
     d="m 307.33197,200.74463 h 65.04071 v 185.30535 h -65.04071 z"
     id="path26"
     inkscape:connector-curvature="0"
     style="fill:#df231d;stroke-width:0.73533869"
     inkscape:export-filename="C:\Users\suitedoalex\sites\big-bom-preco-logo-4.png"
     inkscape:export-xdpi="73.634529"
     inkscape:export-ydpi="73.634529" />
  <path
     class="b"
     d="m 511.11637,316.16339 h 42.56142 c -7.73577,14.44941 -23.222,22.7955 -41.44369,22.7955 -27.20754,0 -46.42193,-18.00109 -46.42193,-44.20856 v -0.52944 c 0,-25.14859 18.38347,-43.67912 43.64235,-43.67912 a 64.047998,64.047998 0 0 1 32.64904,8.94172 l 50.20157,-31.1563 c -20.69243,-20.93509 -53.33412,-31.51662 -84.79926,-31.51662 -61.43019,0 -107.29326,41.29662 -107.29326,96.6235 v 0.52945 c 0,57.44465 48.64265,96.09406 109.24191,96.09406 35.29624,0 73.70299,-11.72866 98.43243,-50.92956 v -64.92305 h -96.77057 z"
     id="path28"
     inkscape:connector-curvature="0"
     style="fill:#df231d;stroke-width:0.73533869"
     inkscape:export-filename="C:\Users\suitedoalex\sites\big-bom-preco-logo-4.png"
     inkscape:export-xdpi="73.634529"
     inkscape:export-ydpi="73.634529" />
  <path
     class="c"
     d="m 241.82065,274.22703 a 46.568998,46.568998 0 0 0 -37.91407,-73.4824 H 89.708493 V 386.04998 H 222.26064 c 31.47249,0 57.48142,-26.08246 57.48142,-57.6432 a 57.856447,57.856447 0 0 0 -37.92141,-54.17975 z"
     id="path30"
     inkscape:connector-curvature="0"
     style="fill:#df231d;fill-rule:evenodd;stroke-width:0.73533869"
     inkscape:export-filename="C:\Users\suitedoalex\sites\big-bom-preco-logo-4.png"
     inkscape:export-xdpi="73.634529"
     inkscape:export-ydpi="73.634529" />
</svg>
